<mxfile host="app.diagrams.net" modified="2024-02-13T15:55:24.681Z" agent="Mozilla/5.0 (X11; Linux x86_64) AppleWebKit/537.36 (KHTML, like Gecko) Chrome/121.0.0.0 Safari/537.36" etag="6aKSqrv68h9H7fDd2FQL" version="23.1.4" type="github">
  <diagram name="Page-1" id="2YBvvXClWsGukQMizWep">
    <mxGraphModel dx="2058" dy="1103" grid="1" gridSize="10" guides="1" tooltips="1" connect="1" arrows="1" fold="1" page="1" pageScale="1" pageWidth="850" pageHeight="1100" math="0" shadow="0">
      <root>
        <mxCell id="0" />
        <mxCell id="1" parent="0" />
        <mxCell id="367FC9NpX3CUArkxd8OE-12" value=":WeichenEditor" style="shape=umlLifeline;perimeter=lifelinePerimeter;whiteSpace=wrap;html=1;container=1;dropTarget=0;collapsible=0;recursiveResize=0;outlineConnect=0;portConstraint=eastwest;newEdgeStyle={&quot;curved&quot;:0,&quot;rounded&quot;:0};" vertex="1" parent="1">
          <mxGeometry x="40" y="40" width="130" height="350" as="geometry" />
        </mxCell>
        <mxCell id="367FC9NpX3CUArkxd8OE-4" value="" style="html=1;points=[[0,0,0,0,5],[0,1,0,0,-5],[1,0,0,0,5],[1,1,0,0,-5]];perimeter=orthogonalPerimeter;outlineConnect=0;targetShapes=umlLifeline;portConstraint=eastwest;newEdgeStyle={&quot;curved&quot;:0,&quot;rounded&quot;:0};" vertex="1" parent="367FC9NpX3CUArkxd8OE-12">
          <mxGeometry x="60" y="70" width="10" height="270" as="geometry" />
        </mxCell>
        <mxCell id="367FC9NpX3CUArkxd8OE-5" value="dispatch" style="html=1;verticalAlign=bottom;startArrow=oval;endArrow=block;startSize=8;curved=0;rounded=0;entryX=0;entryY=0;entryDx=0;entryDy=5;" edge="1" target="367FC9NpX3CUArkxd8OE-4" parent="367FC9NpX3CUArkxd8OE-12">
          <mxGeometry relative="1" as="geometry">
            <mxPoint x="-10" y="75" as="sourcePoint" />
          </mxGeometry>
        </mxCell>
        <mxCell id="367FC9NpX3CUArkxd8OE-16" value=":QueryGenerator" style="shape=umlLifeline;perimeter=lifelinePerimeter;whiteSpace=wrap;html=1;container=1;dropTarget=0;collapsible=0;recursiveResize=0;outlineConnect=0;portConstraint=eastwest;newEdgeStyle={&quot;curved&quot;:0,&quot;rounded&quot;:0};" vertex="1" parent="1">
          <mxGeometry x="180" y="40" width="110" height="350" as="geometry" />
        </mxCell>
        <mxCell id="367FC9NpX3CUArkxd8OE-18" value="" style="html=1;points=[[0,0,0,0,5],[0,1,0,0,-5],[1,0,0,0,5],[1,1,0,0,-5]];perimeter=orthogonalPerimeter;outlineConnect=0;targetShapes=umlLifeline;portConstraint=eastwest;newEdgeStyle={&quot;curved&quot;:0,&quot;rounded&quot;:0};" vertex="1" parent="367FC9NpX3CUArkxd8OE-16">
          <mxGeometry x="50" y="80" width="10" height="40" as="geometry" />
        </mxCell>
        <mxCell id="367FC9NpX3CUArkxd8OE-19" value="double_node" style="html=1;verticalAlign=bottom;endArrow=block;curved=0;rounded=0;entryX=0;entryY=0;entryDx=0;entryDy=5;" edge="1" target="367FC9NpX3CUArkxd8OE-18" parent="1" source="367FC9NpX3CUArkxd8OE-4">
          <mxGeometry relative="1" as="geometry">
            <mxPoint x="260" y="185" as="sourcePoint" />
          </mxGeometry>
        </mxCell>
        <mxCell id="367FC9NpX3CUArkxd8OE-20" value="return" style="html=1;verticalAlign=bottom;endArrow=open;dashed=1;endSize=8;curved=0;rounded=0;exitX=0;exitY=1;exitDx=0;exitDy=-5;" edge="1" source="367FC9NpX3CUArkxd8OE-18" parent="1" target="367FC9NpX3CUArkxd8OE-4">
          <mxGeometry relative="1" as="geometry">
            <mxPoint x="120" y="195" as="targetPoint" />
          </mxGeometry>
        </mxCell>
        <mxCell id="367FC9NpX3CUArkxd8OE-21" value=":GraphDbApi" style="shape=umlLifeline;perimeter=lifelinePerimeter;whiteSpace=wrap;html=1;container=1;dropTarget=0;collapsible=0;recursiveResize=0;outlineConnect=0;portConstraint=eastwest;newEdgeStyle={&quot;curved&quot;:0,&quot;rounded&quot;:0};" vertex="1" parent="1">
          <mxGeometry x="300" y="40" width="90" height="350" as="geometry" />
        </mxCell>
        <mxCell id="367FC9NpX3CUArkxd8OE-23" value="" style="html=1;points=[[0,0,0,0,5],[0,1,0,0,-5],[1,0,0,0,5],[1,1,0,0,-5]];perimeter=orthogonalPerimeter;outlineConnect=0;targetShapes=umlLifeline;portConstraint=eastwest;newEdgeStyle={&quot;curved&quot;:0,&quot;rounded&quot;:0};" vertex="1" parent="367FC9NpX3CUArkxd8OE-21">
          <mxGeometry x="40" y="150" width="10" height="40" as="geometry" />
        </mxCell>
        <mxCell id="367FC9NpX3CUArkxd8OE-24" value="run_query" style="html=1;verticalAlign=bottom;endArrow=block;curved=0;rounded=0;entryX=0;entryY=0;entryDx=0;entryDy=5;" edge="1" target="367FC9NpX3CUArkxd8OE-23" parent="1" source="367FC9NpX3CUArkxd8OE-4">
          <mxGeometry relative="1" as="geometry">
            <mxPoint x="110" y="295" as="sourcePoint" />
          </mxGeometry>
        </mxCell>
        <mxCell id="367FC9NpX3CUArkxd8OE-25" value="return" style="html=1;verticalAlign=bottom;endArrow=open;dashed=1;endSize=8;curved=0;rounded=0;exitX=0;exitY=1;exitDx=0;exitDy=-5;" edge="1" source="367FC9NpX3CUArkxd8OE-23" parent="1" target="367FC9NpX3CUArkxd8OE-4">
          <mxGeometry relative="1" as="geometry">
            <mxPoint x="340" y="365" as="targetPoint" />
          </mxGeometry>
        </mxCell>
        <mxCell id="367FC9NpX3CUArkxd8OE-26" value=":MainWindow" style="shape=umlLifeline;perimeter=lifelinePerimeter;whiteSpace=wrap;html=1;container=1;dropTarget=0;collapsible=0;recursiveResize=0;outlineConnect=0;portConstraint=eastwest;newEdgeStyle={&quot;curved&quot;:0,&quot;rounded&quot;:0};" vertex="1" parent="1">
          <mxGeometry x="400" y="40" width="100" height="350" as="geometry" />
        </mxCell>
        <mxCell id="367FC9NpX3CUArkxd8OE-27" value="" style="html=1;points=[[0,0,0,0,5],[0,1,0,0,-5],[1,0,0,0,5],[1,1,0,0,-5]];perimeter=orthogonalPerimeter;outlineConnect=0;targetShapes=umlLifeline;portConstraint=eastwest;newEdgeStyle={&quot;curved&quot;:0,&quot;rounded&quot;:0};" vertex="1" parent="367FC9NpX3CUArkxd8OE-26">
          <mxGeometry x="45" y="220" width="10" height="40" as="geometry" />
        </mxCell>
        <mxCell id="367FC9NpX3CUArkxd8OE-28" value="set_ecos_df" style="html=1;verticalAlign=bottom;endArrow=block;curved=0;rounded=0;entryX=0;entryY=0;entryDx=0;entryDy=5;" edge="1" target="367FC9NpX3CUArkxd8OE-27" parent="1" source="367FC9NpX3CUArkxd8OE-4">
          <mxGeometry relative="1" as="geometry">
            <mxPoint x="375" y="275" as="sourcePoint" />
          </mxGeometry>
        </mxCell>
        <mxCell id="367FC9NpX3CUArkxd8OE-29" value="return" style="html=1;verticalAlign=bottom;endArrow=open;dashed=1;endSize=8;curved=0;rounded=0;exitX=0;exitY=1;exitDx=0;exitDy=-5;" edge="1" source="367FC9NpX3CUArkxd8OE-27" parent="1" target="367FC9NpX3CUArkxd8OE-4">
          <mxGeometry relative="1" as="geometry">
            <mxPoint x="375" y="345" as="targetPoint" />
          </mxGeometry>
        </mxCell>
        <mxCell id="367FC9NpX3CUArkxd8OE-33" value=":MapEditor" style="shape=umlLifeline;perimeter=lifelinePerimeter;whiteSpace=wrap;html=1;container=1;dropTarget=0;collapsible=0;recursiveResize=0;outlineConnect=0;portConstraint=eastwest;newEdgeStyle={&quot;curved&quot;:0,&quot;rounded&quot;:0};" vertex="1" parent="1">
          <mxGeometry x="510" y="40" width="100" height="350" as="geometry" />
        </mxCell>
        <mxCell id="367FC9NpX3CUArkxd8OE-34" value="" style="html=1;points=[[0,0,0,0,5],[0,1,0,0,-5],[1,0,0,0,5],[1,1,0,0,-5]];perimeter=orthogonalPerimeter;outlineConnect=0;targetShapes=umlLifeline;portConstraint=eastwest;newEdgeStyle={&quot;curved&quot;:0,&quot;rounded&quot;:0};" vertex="1" parent="367FC9NpX3CUArkxd8OE-33">
          <mxGeometry x="45" y="290" width="10" height="40" as="geometry" />
        </mxCell>
        <mxCell id="367FC9NpX3CUArkxd8OE-35" value="fill_list" style="html=1;verticalAlign=bottom;endArrow=block;curved=0;rounded=0;entryX=0;entryY=0;entryDx=0;entryDy=5;" edge="1" target="367FC9NpX3CUArkxd8OE-34" parent="1" source="367FC9NpX3CUArkxd8OE-4">
          <mxGeometry relative="1" as="geometry">
            <mxPoint x="485" y="415" as="sourcePoint" />
          </mxGeometry>
        </mxCell>
        <mxCell id="367FC9NpX3CUArkxd8OE-36" value="return" style="html=1;verticalAlign=bottom;endArrow=open;dashed=1;endSize=8;curved=0;rounded=0;exitX=0;exitY=1;exitDx=0;exitDy=-5;" edge="1" source="367FC9NpX3CUArkxd8OE-34" parent="1" target="367FC9NpX3CUArkxd8OE-4">
          <mxGeometry relative="1" as="geometry">
            <mxPoint x="485" y="485" as="targetPoint" />
          </mxGeometry>
        </mxCell>
      </root>
    </mxGraphModel>
  </diagram>
</mxfile>
